0
SECTION
2
HEADER
9
$INSUNITS
70
4
9
$ACADVER
1
AC1014
9
$HANDSEED
5
FFFF
0
ENDSEC
0
SECTION
2
TABLES
0
TABLE
2
VPORT
5
8
100
AcDbSymbolTable
0
ENDTAB
0
TABLE
2
LTYPE
5
5
100
AcDbSymbolTable
0
LTYPE
5
14
100
AcDbSymbolTableRecord
100
AcDbLinetypeTableRecord
2
BYBLOCK
70
0
0
LTYPE
5
15
100
AcDbSymbolTableRecord
100
AcDbLinetypeTableRecord
2
BYLAYER
70
0
0
LTYPE
5
16
100
AcDbSymbolTableRecord
100
AcDbLinetypeTableRecord
2
DASHED
70
0
3
Dashed __ __ __ __ __ __ __ __ __ __ __ __ __ _
72
65
73
2
40
0.75
49
0.5
74
0
49
-0.25
74
0
0
ENDTAB
0
TABLE
2
LAYER
5
2
100
AcDbSymbolTable
70
2
0
LAYER
5
50
100
AcDbSymbolTableRecord
100
AcDbLayerTableRecord
2
0
70
0
62
7
6
CONTINUOUS
0
ENDTAB
0
TABLE
2
STYLE
5
3
100
AcDbSymbolTable
70
1
0
STYLE
5
11
100
AcDbSymbolTableRecord
100
AcDbTextStyleTableRecord
2
STANDARD
70
0
0
ENDTAB
0
TABLE
2
VIEW
5
6
100
AcDbSymbolTable
70
0
0
ENDTAB
0
TABLE
2
UCS
5
7
100
AcDbSymbolTable
70
0
0
ENDTAB
0
TABLE
2
APPID
5
9
100
AcDbSymbolTable
70
2
0
APPID
5
12
100
AcDbSymbolTableRecord
100
AcDbRegAppTableRecord
2
ACAD
70
0
0
ENDTAB
0
TABLE
2
DIMSTYLE
5
A
100
AcDbSymbolTable
70
1
0
ENDTAB
0
TABLE
2
BLOCK_RECORD
5
1
100
AcDbSymbolTable
70
1
0
BLOCK_RECORD
5
1F
100
AcDbSymbolTableRecord
100
AcDbBlockTableRecord
2
*MODEL_SPACE
0
BLOCK_RECORD
5
1B
100
AcDbSymbolTableRecord
100
AcDbBlockTableRecord
2
*PAPER_SPACE
0
ENDTAB
0
ENDSEC
0
SECTION
2
BLOCKS
0
BLOCK
5
20
100
AcDbEntity
100
AcDbBlockBegin
2
*MODEL_SPACE
0
ENDBLK
5
21
100
AcDbEntity
100
AcDbBlockEnd
0
BLOCK
5
1C
100
AcDbEntity
100
AcDbBlockBegin
2
*PAPER_SPACE
0
ENDBLK
5
1D
100
AcDbEntity
100
AcDbBlockEnd
0
ENDSEC
0
SECTION
2
ENTITIES
0
POINT
5
100
100
AcDbEntity
8
0
100
AcDbPoint
10
0
20
0
30
0
0
LWPOLYLINE
5
101
100
AcDbEntity
8
0
100
AcDbPolyline
90
40
70
1
43
0.0
10
-69.840112333371025
20
11.061587104123722
10
-58.778525229247307
20
19.098300562505266
10
-63.003675533505046
20
32.101976096010304
10
-50
20
36.327126400268035
10
-50
20
50
10
-36.327126400268035
20
50
10
-32.10197609601029
20
63.003675533505053
10
-19.098300562505244
20
58.778525229247322
10
-11.061587104123699
20
69.840112333371025
10
1.1102230246251565e-14
20
61.803398874989483
10
11.061587104123722
20
69.840112333371025
10
19.098300562505273
20
58.7785252292473
10
32.101976096010326
20
63.003675533505039
10
36.327126400268064
20
49.999999999999993
10
50.000000000000007
20
49.999999999999993
10
50
20
36.327126400268035
10
63.003675533505046
20
32.101976096010304
10
58.778525229247322
20
19.098300562505244
10
69.840112333371025
20
11.061587104123696
10
61.80339887498949
20
-8.8817841970012523e-15
10
69.840112333371025
20
-11.061587104123731
10
58.778525229247307
20
-19.098300562505266
10
63.003675533505046
20
-32.101976096010311
10
49.999999999999993
20
-36.327126400268057
10
49.999999999999993
20
-50.000000000000007
10
36.327126400268043
20
-50.000000000000007
10
32.101976096010304
20
-63.00367553350506
10
19.098300562505237
20
-58.778525229247322
10
11.061587104123705
20
-69.840112333371025
10
-1.7763568394002505e-14
20
-61.803398874989469
10
-11.061587104123728
20
-69.84011233337101
10
-19.098300562505255
20
-58.778525229247322
10
-32.101976096010311
20
-63.003675533505053
10
-36.327126400268043
20
-50.000000000000014
10
-50
20
-50.000000000000014
10
-50
20
-36.327126400268043
10
-63.003675533505053
20
-32.101976096010311
10
-58.778525229247307
20
-19.098300562505244
10
-69.840112333371025
20
-11.061587104123705
10
-61.80339887498949
20
1.3322676295501878e-14
0
LINE
5
102
100
AcDbEntity
8
0
100
AcDbLine
10
40.450849718747364
20
-29.389262614623661
30
0
11
35.796047807979356
21
-35.79604780797942
31
0
0
CIRCLE
5
103
100
AcDbEntity
8
0
100
AcDbCircle
10
0
20
0
30
0
40
50
210
0
220
0
230
1
0
ENDSEC
0
SECTION
2
OBJECTS
0
DICTIONARY
5
C
100
AcDbDictionary
3
ACAD_GROUP
350
D
3
ACAD_MLINESTYLE
350
17
0
DICTIONARY
5
D
100
AcDbDictionary
0
DICTIONARY
5
1A
330
C
100
AcDbDictionary
0
DICTIONARY
5
17
100
AcDbDictionary
0
ENDSEC
0
EOF
